<svg width="78" height="81" viewBox="0 0 78 81" fill="none" xmlns="http://www.w3.org/2000/svg">
<g clip-path="url(#clip0_704_2479)">
<path d="M77.1004 17.0004C78.8004 20.6004 75.2004 24.1004 73.3004 26.9004C71.8004 29.1004 69.6004 30.7004 67.6004 32.5004C66.467 33.5671 65.3337 34.6004 64.2004 35.6004C63.6004 36.1337 63.0004 36.6671 62.4004 37.2004C62.0004 37.5004 61.5004 38.0004 61.1004 38.3004C60.6004 38.6004 60.1004 38.8004 59.7004 39.1004C58.8337 39.7004 58.0337 40.4337 57.3004 41.3004C57.4004 41.1004 58.1004 41.2004 58.2004 41.3004C58.5337 41.3004 58.8337 41.3337 59.1004 41.4004C59.7004 41.6004 60.2337 41.9004 60.7004 42.3004C61.1004 42.7004 61.5004 43.1004 61.7004 43.7004C61.8004 44.0004 62.1004 44.2004 62.3004 44.5004C62.567 44.7671 62.8337 45.0671 63.1004 45.4004C65.2337 47.8004 67.4004 50.2004 69.6004 52.6004C71.1337 54.4004 72.7004 56.1671 74.3004 57.9004C74.6337 58.3004 74.9004 58.7337 75.1004 59.2004C75.6004 60.3004 75.7004 61.7004 75.2004 62.8004C74.4004 65.1004 72.9004 67.5004 71.3004 69.4004C71.167 69.4671 71.067 69.5337 71.0004 69.6004C70.7004 69.9004 70.5004 70.2004 70.2004 70.4004L59.4004 79.5004C57.6004 81.0004 55.0004 80.8004 53.4004 79.1004C52.267 77.8337 51.1337 76.6004 50.0004 75.4004C47.867 73.0671 45.767 70.7671 43.7004 68.5004C42.567 67.3004 41.467 66.1004 40.4004 64.9004C39.5004 63.9004 38.6004 62.9004 38.1004 61.6004C37.8004 60.7004 37.7004 59.7004 38.3004 58.9004C37.6337 59.3004 36.967 59.7337 36.3004 60.2004C36.1004 60.3004 35.8004 60.5004 35.7004 60.7004C35.3004 61.2004 34.7004 61.6004 34.2004 62.1004C28.667 67.0337 23.1004 71.9671 17.5004 76.9004C15.8004 78.5004 13.1004 78.3004 11.5004 76.6004C10.6004 75.7004 9.70036 74.9004 9.00036 73.9004C8.80036 73.6004 8.60036 73.2004 8.30036 72.9004C7.90036 72.4004 7.30036 72.0004 6.80036 71.6004C5.80036 70.6004 4.96703 69.5004 4.30036 68.3004C4.20036 68.1004 4.10036 67.9004 4.10036 67.7004C4.10036 67.5004 4.20036 67.3004 4.30036 67.1004C4.56703 66.7004 4.80036 66.2671 5.00036 65.8004C4.40036 66.0004 3.70036 66.2004 3.10036 66.2004C2.40036 66.3004 1.70036 66.1004 1.20036 65.6004C0.800363 65.2004 0.600363 64.7004 0.400363 64.2004C0.333697 63.9337 0.26703 63.6671 0.200363 63.4004C0.100363 62.7004 0.200363 61.8004 0.400363 61.2004C0.600363 60.4671 0.900363 59.7671 1.30036 59.1004C3.00036 56.4004 5.20036 53.9004 7.50036 51.8004C8.10036 51.2671 8.70036 50.7337 9.30036 50.2004C11.6337 48.0004 14.0004 45.8004 16.4004 43.6004C16.7337 43.2671 17.1004 42.9337 17.5004 42.6004C17.8004 42.3004 18.3004 42.2004 18.6004 41.9004C19.1004 41.4004 19.6004 40.9004 20.1004 40.4004C20.567 39.8671 21.0337 39.3671 21.5004 38.9004C20.8004 38.8004 20.2004 39.1004 19.5004 39.2004C19.0337 39.2671 18.6004 39.2337 18.2004 39.1004C17.6004 39.0337 17.0337 38.8671 16.5004 38.6004C16.0004 38.3004 15.5004 38.1004 15.2004 37.6004C15.0004 37.3004 14.8004 37.1004 14.5004 36.9004C13.9004 36.2337 13.3004 35.5671 12.7004 34.9004C11.567 33.7004 10.467 32.4671 9.40036 31.2004C7.20036 28.8671 5.0337 26.5004 2.90036 24.1004C2.00036 23.2004 1.50036 21.9004 1.60036 20.6004C1.70036 18.9004 2.80036 17.8004 3.60036 16.4004C4.40036 15.1004 5.00036 13.5004 6.20036 12.3004C7.30036 11.3004 8.30036 10.1004 9.30036 9.10039C11.5004 6.90039 13.767 4.76706 16.1004 2.70039C16.567 2.30039 17.067 1.86706 17.6004 1.40039C19.4004 -0.0996094 22.0004 0.000390649 23.6004 1.70039C24.2004 2.30039 24.8337 2.93372 25.5004 3.60039C25.8004 3.90039 26.1004 4.20039 26.3004 4.60039C26.5004 4.80039 26.6004 5.00039 26.8004 5.20039C27.267 5.60039 27.667 6.10039 28.0004 6.70039C28.6004 7.80039 29.0004 9.10039 29.0004 10.4004C29.0004 10.3004 29.8004 10.2004 29.9004 10.2004C30.2337 10.1337 30.567 10.1671 30.9004 10.3004C31.3004 10.4004 31.7004 10.5004 32.1004 10.8004C32.6004 11.1004 32.9004 11.6004 33.3004 12.0004C33.8337 12.6004 34.4004 13.2004 35.0004 13.8004C37.067 16.0671 39.167 18.3671 41.3004 20.7004C47.6004 15.0004 54.0004 9.30039 60.4004 3.90039C62.2004 2.40039 64.8004 2.60039 66.4004 4.40039C67.067 5.06706 67.7337 5.76706 68.4004 6.50039C69.0004 7.10039 69.6004 7.70039 70.0004 8.30039C70.3004 8.60039 70.6004 8.90039 70.8004 9.20039C71.1004 9.50039 71.2004 10.0004 71.4004 10.5004C71.7004 11.8004 72.1004 13.3004 71.4004 14.5004C71.9004 13.8004 72.7004 13.2004 73.5004 13.4004C73.7004 13.4671 73.9004 13.5337 74.1004 13.6004C74.6337 13.9337 75.1004 14.3337 75.5004 14.8004C75.9004 15.2004 76.2004 15.7004 76.5004 16.1004C76.7004 16.3671 76.9004 16.6671 77.1004 17.0004V17.0004Z" fill="#9C3708"/>
<path d="M51.7003 44.4005C51.1003 45.1005 50.5003 45.7005 49.8003 46.4005C50.6669 45.9338 51.5003 45.4671 52.3003 45.0005C53.3669 44.3338 54.4669 43.6671 55.6003 43.0005C56.2003 42.6005 56.9003 42.2005 57.7003 42.1005C58.5003 41.9005 59.3003 42.0005 59.9003 42.5005C60.8003 43.3005 60.7003 44.7005 60.5003 45.9005C60.8003 45.4005 61.4003 45.2005 62.0003 45.3005C62.5003 45.5005 63.0003 45.8005 63.4003 46.2005C64.0003 46.6005 64.7003 47.1005 65.3003 47.6005C65.4003 47.8005 65.5003 48.0005 65.6003 48.1005C65.8003 48.5005 66.1003 48.7005 66.3003 49.0005C67.2003 50.0005 68.2003 51.1005 69.1003 52.1005C69.2336 52.3005 69.3669 52.4671 69.5003 52.6005C71.1003 54.4005 72.7003 56.2005 74.3003 57.9005C76.1003 59.9005 75.9003 63.1005 73.9003 64.8005L63.4003 73.6005L63.1003 73.8005C61.3003 75.4005 58.7003 75.2005 57.1003 73.4005C56.0336 72.2671 54.9669 71.1005 53.9003 69.9005C51.8336 67.6338 49.7336 65.3671 47.6003 63.1005C46.5336 61.9005 45.4336 60.7005 44.3003 59.5005C43.9003 59.0005 43.4003 58.6005 43.0003 58.1005C42.5003 57.5005 42.1003 56.9005 41.7003 56.2005C41.2003 55.4005 40.9003 54.3005 41.2003 53.4005C40.6669 53.9338 40.1336 54.4338 39.6003 54.9005C39.4003 55.2005 39.2003 55.4005 38.9003 55.7005C38.7669 55.7005 38.6669 55.7338 38.6003 55.8005C38.4003 56.0005 38.1003 56.2005 37.9003 56.4005C37.8003 56.5005 37.7003 56.7005 37.5003 56.8005C37.4336 56.9338 37.3669 57.0005 37.3003 57.0005C36.6336 57.5338 36.0003 58.0671 35.4003 58.6005C34.9003 59.1005 34.3003 59.5005 33.9003 60.1005C33.6003 60.6005 32.8003 61.1005 32.3003 61.5005C31.6003 62.0005 31.0003 62.5005 30.4003 63.0005C30.3003 63.1005 30.2003 63.2005 30.1003 63.2005C30.0336 63.2005 29.9336 63.1671 29.8003 63.1005C29.6003 62.9671 29.4336 62.8338 29.3003 62.7005C28.5003 62.1005 27.8003 61.4005 27.2003 60.6005C26.4003 59.5005 25.6003 58.4005 24.5003 57.5005C25.0003 58.4005 25.5003 59.4005 26.0003 60.3005C26.1336 60.7005 26.2669 61.0671 26.4003 61.4005C26.6003 61.7338 26.7669 62.0671 26.9003 62.4005C27.0003 62.9005 27.3003 63.5005 27.3003 64.1005C27.3003 64.9005 26.8003 65.7005 26.3003 66.4005C26.0003 66.7005 25.8003 67.0005 25.6003 67.3005C25.5003 67.5005 25.3003 67.6005 25.2003 67.7005C24.7336 68.1005 24.2669 68.5005 23.8003 68.9005L23.6003 69.1005L21.2003 71.2005C20.6003 71.7338 19.9336 72.0671 19.2003 72.2005C17.8003 72.6005 16.3003 72.1005 15.2003 70.9005C14.7336 70.4338 14.2669 69.9671 13.8003 69.5005C13.3003 69.0005 12.9003 68.4005 12.3003 68.0005C11.9003 67.7005 11.5003 67.5005 11.2003 67.2005C10.6003 66.7005 10.2003 66.1005 9.80026 65.5005C9.30026 64.9005 8.90026 64.3005 8.60026 63.7005C8.50026 63.5005 8.40026 63.4005 8.40026 63.2005C8.40026 63.0005 8.50026 62.7005 8.70026 62.5005C9.63359 61.4338 10.5669 60.4005 11.5003 59.4005C12.0003 58.8005 12.5003 58.3005 13.0003 57.8005C12.5336 58.0671 12.0336 58.3338 11.5003 58.6005C11.5003 58.6005 11.5003 58.6338 11.5003 58.7005C10.8336 59.1005 10.1336 59.5005 9.40026 59.9005C8.80026 60.1671 8.20026 60.4671 7.60026 60.8005C7.53359 60.8005 7.46692 60.8005 7.40026 60.8005C7.40026 60.8671 7.40026 60.9005 7.40026 60.9005C7.10026 61.0005 6.90026 61.1005 6.60026 61.1005C6.46692 61.1005 6.33359 61.0338 6.20026 60.9005C5.90026 60.8005 5.60026 60.5005 5.40026 60.2005C5.10026 60.0005 4.90026 59.8005 4.60026 59.6005C4.40026 59.4005 4.23359 59.1338 4.10026 58.8005C3.50026 57.1005 4.00026 55.0005 5.40026 53.7005C5.50026 53.6005 5.60026 53.5005 5.70026 53.4005C6.90026 52.3338 8.10026 51.2338 9.30026 50.1005C10.5003 49.1005 11.6669 48.0338 12.8003 46.9005C15.1336 44.8338 17.4336 42.7338 19.7003 40.6005C19.8003 40.5005 19.9003 40.4005 19.9003 40.4005C20.5003 39.8005 21.1003 39.2338 21.7003 38.7005C22.0003 38.5005 22.3003 38.2005 22.5003 38.0005C22.5669 37.8671 22.6336 37.7338 22.7003 37.6005C22.7003 37.6005 22.7336 37.6005 22.8003 37.6005C22.8003 37.5338 22.8336 37.5005 22.9003 37.5005C23.1003 37.3671 23.2669 37.2338 23.4003 37.1005C23.4669 37.1005 23.5003 37.1005 23.5003 37.1005C23.9669 36.8338 24.4669 36.5338 25.0003 36.2005C25.6003 35.9005 26.3003 35.5005 26.9003 35.1005C26.9669 35.0338 27.0336 35.0005 27.1003 35.0005C28.6336 34.0671 30.1669 33.1338 31.7003 32.2005C32.9669 31.4671 34.2003 30.7338 35.4003 30.0005C35.2669 30.0005 35.1003 30.0338 34.9003 30.1005C33.7003 30.4005 32.5003 30.8005 31.3003 31.3005C29.1003 32.1005 26.9003 33.0005 24.6003 33.4005C24.1336 33.4671 23.6669 33.5338 23.2003 33.6005C22.3003 33.7005 21.3003 33.6005 20.5003 33.1005C20.1003 32.8005 19.7003 32.4005 19.3003 32.0005C19.0003 31.7005 18.6003 31.6005 18.2003 31.2005C14.3336 26.9338 10.4669 22.7005 6.60026 18.5005C4.90026 16.7005 4.90026 13.9005 6.50026 12.0005C6.50026 12.0005 6.53359 11.9671 6.60026 11.9005C10.0669 8.16714 13.7336 4.66714 17.6003 1.40047C18.0669 1.00047 18.5669 0.700475 19.1003 0.500475C20.1003 0.200475 21.1003 0.300475 22.1003 0.600475C22.6336 0.867141 23.1336 1.23381 23.6003 1.70047C24.2003 2.30047 24.8003 2.90047 25.4003 3.50047C26.5003 4.70047 28.4003 6.70047 28.0003 8.50047C27.8669 9.23381 27.6669 9.96714 27.4003 10.7005C27.2669 11.1005 27.1336 11.4671 27.0003 11.8005C26.6003 12.8005 26.1003 13.7005 25.6003 14.6005C26.0669 14.0671 26.5336 13.5338 27.0003 13.0005C27.3336 12.6005 27.6336 12.2005 27.9003 11.8005C28.0336 11.6671 28.1336 11.5338 28.2003 11.4005C28.5003 10.9005 28.8003 10.5005 29.2003 10.2005C29.3336 10.0671 29.4336 10.0005 29.5003 10.0005C30.0003 9.70047 30.6003 9.80047 31.2003 10.0005C32.6003 10.7005 34.2003 12.6005 35.2003 13.9005C35.6003 14.4005 35.9003 14.8005 36.1003 15.0005C36.9669 15.9338 37.8336 16.9005 38.7003 17.9005C38.9669 18.1671 39.2003 18.4338 39.4003 18.7005C39.4669 18.7005 39.5003 18.7005 39.5003 18.7005C40.1003 19.3671 40.7003 20.0338 41.3003 20.7005C43.6336 18.5671 46.0003 16.4671 48.4003 14.4005C52.4003 10.8005 56.4003 7.30047 60.4003 3.90047C62.2003 2.40047 64.8003 2.60048 66.5003 4.40048C67.4003 5.30048 71.3003 9.10047 70.6003 10.4005C70.4669 10.7338 70.3003 11.0671 70.1003 11.4005C69.3003 12.7005 68.4003 13.8005 67.5003 14.9005C66.7669 15.7671 66.0003 16.6671 65.2003 17.6005C66.0003 17.3005 66.6003 16.8005 67.2003 16.3005C67.7003 15.8005 68.1003 15.4005 68.5003 15.0005C69.7003 13.8671 71.0003 12.9005 72.4003 12.1005C72.5003 12.0005 72.7003 11.9005 72.8003 12.0005C73.0003 12.0005 73.1336 12.0671 73.2003 12.2005C74.0003 12.9005 74.9003 13.9005 75.7003 14.9005C76.4003 15.9005 77.1003 17.0005 77.4003 18.2005C77.8003 19.7005 77.5003 21.3005 76.0003 22.7005C71.8669 26.3671 67.7336 30.0338 63.6003 33.7005C63.2669 34.0338 62.9003 34.3671 62.5003 34.7005C61.7669 35.3005 61.0669 35.9338 60.4003 36.6005C59.9003 37.0005 59.4003 37.5005 58.9003 37.9005C58.8003 37.9005 58.8003 38.0005 58.7003 38.0005C58.2003 38.2005 57.9003 38.4005 57.5003 38.8005C57.4336 38.8005 57.4003 38.8338 57.4003 38.9005C55.5336 40.6338 53.7003 42.4005 51.9003 44.2005C51.8336 44.2671 51.7669 44.3338 51.7003 44.4005V44.4005Z" fill="url(#paint0_linear_704_2479)"/>
<path d="M77.4 18.2005C76.6667 19.0671 75.9333 19.9005 75.2 20.7005C70.1 26.4005 64.4 31.7005 57.7 35.3005C51 38.9005 43 40.6005 35.6 38.8005C32.5 38.1005 29.6 36.8005 26.9 35.1005C26.1 34.5671 25.3333 34.0005 24.6 33.4005C18.9 29.1005 14.1 23.1005 9.7 17.4005L12.9 21.6005C10.5 18.7005 8 15.5005 6.5 12.0005C6.5 12.0005 6.53333 11.9671 6.6 11.9005C10.0667 8.16714 13.7333 4.66714 17.6 1.40047C18.0667 1.00047 18.5667 0.700475 19.1 0.500475C20.1 0.200475 21.1 0.300475 22.1 0.600475C22.6333 0.867141 23.1333 1.23381 23.6 1.70047C24.2 2.30047 24.8 2.90047 25.4 3.50047C26.5 4.70047 28.4 6.70047 28 8.50047C27.8667 9.23381 27.6667 9.96714 27.4 10.7005C27.2667 11.1005 27.1333 11.4671 27 11.8005C26.6 12.8005 26.1 13.7005 25.6 14.6005C26.0667 14.0671 26.5333 13.5338 27 13.0005C27.3333 12.6005 27.6333 12.2005 27.9 11.8005C28.0333 11.6671 28.1333 11.5338 28.2 11.4005C28.5 10.9005 28.8 10.5005 29.2 10.2005C29.3333 10.0671 29.4333 10.0005 29.5 10.0005C31.8 8.80047 34.9 13.7005 36.1 15.0005C36.9667 15.9338 37.8333 16.9005 38.7 17.9005C39.5667 18.8338 40.4333 19.7671 41.3 20.7005C43.6333 18.5671 46 16.4671 48.4 14.4005C52.4 10.8005 56.4 7.30047 60.4 3.90047C62.2 2.40047 64.8 2.60048 66.5 4.40048C67.4 5.30048 71.3 9.10047 70.6 10.4005C70.4667 10.7338 70.3 11.0671 70.1 11.4005C69.3 12.7005 68.4 13.8005 67.5 14.9005C66.7667 15.7671 66 16.6671 65.2 17.6005C66 17.3005 66.6 16.8005 67.2 16.3005C67.7 15.8005 68.1 15.4005 68.5 15.0005C69.7 13.8671 71 12.9005 72.4 12.1005C72.5 12.0005 72.7 11.9005 72.8 12.0005C73 12.0005 73.1333 12.0671 73.2 12.2005C74.8 13.7005 76.8 15.9005 77.4 18.2005V18.2005Z" fill="url(#paint1_linear_704_2479)"/>
<path d="M35.1002 29.9004C35.0335 29.9671 34.9669 30.0337 34.9002 30.1004C30.9002 31.0004 27.3002 33.3004 23.2002 33.6004C22.3002 33.7004 21.3002 33.6004 20.5002 33.1004C20.0002 32.8004 19.7002 32.4004 19.3002 32.0004C19.0002 31.7004 18.6002 31.6004 18.2002 31.2004C14.3335 26.9337 10.4669 22.7004 6.6002 18.5004C4.9002 16.6004 4.9002 13.7004 6.6002 11.9004C10.0669 8.16706 13.7335 4.66706 17.6002 1.40039C19.4002 -0.0996094 22.0002 0.000390649 23.6002 1.70039C24.2002 2.30039 24.8002 2.90039 25.4002 3.50039C25.7335 3.90039 26.1002 4.30039 26.5002 4.70039C27.2002 5.60039 28.0002 6.60039 28.1002 7.80039C28.1002 8.40039 27.8002 8.90039 27.7002 9.50039C27.5669 9.90039 27.4669 10.2671 27.4002 10.6004C27.2002 11.0004 27.0002 11.3004 27.0002 11.7004C27.2002 10.3671 27.2669 9.03372 27.2002 7.70039C27.1002 7.30039 27.1002 6.80039 26.9002 6.40039C26.6002 5.80039 26.1002 5.30039 25.6002 4.90039C24.6002 4.03372 23.5002 3.26706 22.3002 2.60039C21.9002 2.30039 21.4002 2.10039 20.9002 2.10039C20.3002 2.10039 19.8002 2.50039 19.3002 2.80039C18.4002 3.50039 17.5002 4.20039 16.7002 4.90039C16.4002 5.20039 16.1002 5.40039 15.7002 5.50039C14.8002 6.00039 14.2002 6.90039 13.3002 7.40039C11.9002 8.00039 10.6002 9.20039 9.5002 10.3004C8.4002 11.4004 7.1002 12.7004 6.8002 14.4004C6.6002 15.8004 7.4002 17.0004 8.1002 18.1004C8.63353 18.9004 9.16686 19.7004 9.7002 20.5004C10.8335 22.0337 12.0335 23.5004 13.3002 24.9004C14.6335 26.3671 16.0335 27.7337 17.5002 29.0004C18.2002 29.7004 19.0002 30.4004 19.8002 31.1004C20.2002 31.4004 20.7002 31.5004 21.3002 31.6004C22.3002 31.8004 23.2002 31.9004 24.2002 31.8004C25.2002 31.7004 26.2002 31.5004 27.2002 31.3004C27.4002 31.2337 27.5669 31.2004 27.7002 31.2004C30.1669 30.6671 32.6335 30.2337 35.1002 29.9004V29.9004Z" fill="#FFDF80"/>
<path d="M5.70026 58.1996C6.30026 59.0663 6.86692 59.9329 7.40026 60.7996C7.40026 60.8663 7.40026 60.8996 7.40026 60.8996C7.10026 60.9996 6.90026 61.0996 6.60026 61.0996C6.10026 60.9996 5.70026 60.5996 5.40026 60.1996C5.10026 59.9996 4.90026 59.7996 4.60026 59.5996C4.40026 59.3996 4.20026 59.0996 4.10026 58.7996C3.50026 57.0996 4.00026 54.9996 5.40026 53.6996C5.46692 53.6329 5.56692 53.5329 5.70026 53.3996C8.10026 51.2663 10.4669 49.1329 12.8003 46.9996C15.2003 44.7996 17.5669 42.5996 19.9003 40.3996C20.5003 39.7996 21.1003 39.2329 21.7003 38.6996C22.0003 38.4996 22.3003 38.1996 22.5003 37.8996C22.5669 37.8329 22.6336 37.7329 22.7003 37.5996C22.7003 37.5996 22.7336 37.5996 22.8003 37.5996C23.0003 37.4663 23.2003 37.2996 23.4003 37.0996C23.1003 37.5996 22.6003 37.9996 22.3003 38.3996C21.7669 38.9329 21.2336 39.4329 20.7003 39.8996C19.7003 40.9663 18.6669 42.0329 17.6003 43.0996C17.0003 43.6996 16.4003 44.2996 15.8003 44.8996C12.6003 48.2329 9.36692 51.5329 6.10026 54.7996C5.70026 55.2996 5.20026 55.7996 5.10026 56.4996C5.10026 57.0996 5.40026 57.6996 5.70026 58.1996V58.1996Z" fill="#FFDF80"/>
<path d="M27.3004 64.0004C27.3004 64.9004 26.8004 65.7004 26.3004 66.4004C26.0004 66.7004 25.8004 67.0004 25.6004 67.3004C25.5004 67.5004 25.3004 67.6004 25.2004 67.7004C24.7337 68.1004 24.2671 68.5004 23.8004 68.9004L21.2004 71.2004C19.5004 72.8004 16.8004 72.7004 15.2004 70.9004C14.7337 70.4337 14.2671 69.9671 13.8004 69.5004C13.3004 69.0004 12.8004 68.4004 12.3004 68.0004C11.9004 67.7004 11.5004 67.5004 11.2004 67.2004C10.6004 66.8004 10.2004 66.1004 9.80039 65.5004C9.33372 64.9004 8.93372 64.3004 8.60039 63.7004C8.50039 63.5004 8.40039 63.4004 8.40039 63.2004C8.40039 63.0004 8.50039 62.7004 8.70039 62.5004C9.63372 61.4337 10.5671 60.4004 11.5004 59.4004C10.6004 60.9004 9.90039 62.6004 10.5004 64.2004C10.8004 64.9004 11.4004 65.5004 11.9004 66.1004C12.9004 67.4004 13.7004 68.8004 15.1004 69.8004C15.3004 69.9337 15.5004 70.1004 15.7004 70.3004C16.2004 70.8004 17.0004 71.0004 17.7004 71.1004C18.0004 71.2004 18.3004 71.3004 18.7004 71.2004C19.2004 71.0004 19.5004 70.4004 19.6004 69.9004C19.9337 68.8337 20.2337 67.7671 20.5004 66.7004C20.6004 67.3004 20.7004 68.0004 21.2004 68.4004C21.8004 68.7004 22.5004 68.5004 23.1004 68.1004C23.6337 67.7671 24.0671 67.3671 24.4004 66.9004C24.8004 66.4004 25.3004 66.1004 25.7004 65.7004C25.9004 65.4004 26.2004 65.1004 26.3004 64.8004C26.4004 64.5004 26.4004 64.1004 26.4004 63.8004C26.4004 62.6004 26.2671 61.4337 26.0004 60.3004C26.2671 60.9671 26.5671 61.6671 26.9004 62.4004C27.1004 62.9004 27.3004 63.5004 27.3004 64.0004V64.0004Z" fill="#FFDF80"/>
<path d="M73.8998 64.8002L63.0998 73.8002C61.2998 75.4002 58.6998 75.2002 57.0998 73.4002C56.0331 72.2669 54.9665 71.1002 53.8998 69.9002C51.8331 67.6335 49.7331 65.3669 47.5998 63.1002C46.5331 61.9002 45.4331 60.7002 44.2998 59.5002C43.8998 59.0002 43.3998 58.6002 42.9998 58.1002C42.4998 57.5002 42.0998 56.9002 41.6998 56.2002C41.1998 55.4002 40.8998 54.4002 41.1998 53.4002C40.6665 53.9335 40.1331 54.4335 39.5998 54.9002C39.3998 55.1002 39.1998 55.4002 38.8998 55.7002C38.7665 55.7002 38.6665 55.7335 38.5998 55.8002C38.3998 56.0002 38.0998 56.2002 37.8998 56.4002C37.6998 56.6002 37.4998 56.9002 37.1998 57.0002C36.5998 57.5335 35.9998 58.0669 35.3998 58.6002C34.8998 59.1002 34.2998 59.5002 33.8998 60.1002C33.4998 60.6002 32.7998 61.1002 32.2998 61.5002C31.6331 62.0335 30.9998 62.5335 30.3998 63.0002C30.3331 63.1335 30.2331 63.2002 30.0998 63.2002C30.0331 63.2002 29.9331 63.1669 29.7998 63.1002C29.5998 62.9669 29.4331 62.8335 29.2998 62.7002C29.3665 62.5002 29.4998 62.3002 29.6998 62.1002C30.2998 61.7002 30.8998 61.3002 31.3998 60.8002C33.7998 59.0002 36.0998 57.1002 38.2998 55.1002C38.9665 54.5002 39.5998 53.9335 40.1998 53.4002C40.4665 53.1335 40.7665 52.8335 41.0998 52.5002C41.2331 52.3669 41.3998 52.2335 41.5998 52.1002C41.6998 52.0002 41.9998 51.8002 41.9998 51.7002C41.5998 53.9002 42.8998 56.1002 44.1998 57.9002C47.9998 63.0002 52.0998 67.7002 56.6998 71.9002C57.4998 72.7002 58.3998 73.4002 59.3998 73.5002C60.1998 73.6002 60.8998 73.2002 61.5998 72.9002C65.0998 71.3002 68.2998 69.1002 71.1998 66.6002C72.9998 65.0002 74.7998 63.0002 74.5998 60.6002C74.3998 58.8002 73.1998 57.4002 71.9998 56.2002C71.7998 55.9002 71.4998 55.6002 71.1998 55.4002C70.2998 54.9002 69.0998 55.3002 68.0998 55.7002C68.6998 54.6002 68.7998 53.2002 68.3998 52.1002C68.6665 52.1669 68.8998 52.1669 69.0998 52.1002C69.2331 52.3002 69.3665 52.4669 69.4998 52.6002C71.0998 54.4002 72.6998 56.1669 74.2998 57.9002C76.0998 59.9002 75.8998 63.1002 73.8998 64.8002V64.8002Z" fill="#FFDF80"/>
<path d="M75.9996 22.7004C71.8663 26.3671 67.7329 30.0337 63.5996 33.7004C62.5329 34.6337 61.4663 35.6004 60.3996 36.6004C59.8996 37.0004 59.3996 37.5004 58.8996 37.9004C58.8329 37.9671 58.7663 38.0004 58.6996 38.0004C58.1996 38.2004 57.8996 38.4004 57.4996 38.8004C57.4329 38.8004 57.3996 38.8337 57.3996 38.9004C55.4663 40.7004 53.5663 42.5337 51.6996 44.4004C51.6996 44.4004 51.6663 44.4337 51.5996 44.5004C53.3996 42.6004 55.2996 40.7004 57.1996 38.9004C57.7996 38.3004 58.3663 37.7337 58.8996 37.2004C60.9996 35.1004 62.9996 33.1004 65.2996 31.4004C66.2996 30.7004 67.3996 30.1004 68.2996 29.3004C69.3996 28.4004 70.2996 27.5004 71.1996 26.4004C73.0663 24.2671 74.7329 21.9671 76.1996 19.5004C76.2996 19.2004 76.4996 18.9004 76.4996 18.6004C76.4996 18.2004 76.2996 17.9004 75.9996 17.6004C75.6663 17.0671 75.2996 16.5671 74.8996 16.1004C74.1996 15.2004 73.4996 14.2004 72.3996 14.0004C71.4996 13.9004 70.3996 14.3004 69.6996 14.9004C69.5996 15.0004 69.4996 15.2004 69.3996 15.3004C68.9996 15.7004 68.4996 16.0004 68.0996 16.3004C67.0996 16.8337 66.0663 17.2671 64.9996 17.6004C66.2663 17.0004 67.3996 16.2337 68.3996 15.3004C68.8996 14.8004 69.2996 14.2004 69.7996 13.8004C70.3996 13.4004 70.9996 13.0004 71.5996 12.6004C71.8663 12.4004 72.1329 12.2337 72.3996 12.1004C72.4996 12.0004 72.6996 11.9004 72.7996 12.0004C72.9996 12.0004 73.0996 12.1004 73.1996 12.2004C75.8996 14.7004 79.6996 19.4004 75.9996 22.7004V22.7004Z" fill="#FFDF80"/>
<path d="M70.6 10.3998C70.4667 10.7332 70.3 11.0665 70.1 11.3998C69 7.99984 66.3 4.99984 63 3.59984C59.6 4.79984 56.9 7.49984 54.4 10.0998C53.7 10.7998 53.1 11.4998 52.8 12.3998C52.1 14.3998 53.3 16.4998 53.5 18.4998C52.5667 17.2332 51.6 15.9998 50.6 14.7998C50.5 14.6998 50.3 14.4998 50.1 14.3998C49.9 14.3998 49.7 14.5998 49.6 14.6998C46.5 16.8998 43.6 19.3998 41.1 22.2998C40.3667 21.1665 39.5667 20.0332 38.7 18.8998C37.1667 16.9665 35.5 15.1665 33.7 13.4998C32.8333 12.6332 31.9 11.7998 30.9 10.9998C30.7 10.7998 30.4667 10.5998 30.2 10.3998C30 10.3998 29.8 10.2998 29.6 10.0998C29.6 10.0998 29.5667 10.0665 29.5 9.99984C31.8 8.79984 34.9 13.6998 36.1 14.9998C37.8 16.8998 39.6 18.7998 41.3 20.6998C47.6 14.9998 54 9.29984 60.4 3.89984C62.2 2.39984 64.8 2.59984 66.5 4.39984C67.4 5.39984 71.3 9.09984 70.6 10.3998V10.3998Z" fill="#FFDF80"/>
<path style="mix-blend-mode:screen" d="M32.0002 11.6C31.6002 11.2 31.4002 10.6 31.2002 10C32.6002 10.7 34.2002 12.6 35.2002 13.9C34.6002 13.3667 33.9669 12.9 33.3002 12.5C32.9002 12.2 32.4002 12 32.0002 11.6V11.6Z" fill="url(#paint2_linear_704_2479)"/>
<path style="mix-blend-mode:screen" d="M6.2002 60.8998C6.66686 60.8998 7.13353 60.8665 7.6002 60.7998C7.53353 60.7998 7.46686 60.7998 7.4002 60.7998C7.4002 60.8665 7.4002 60.8998 7.4002 60.8998C7.1002 60.9998 6.9002 61.0998 6.6002 61.0998C6.46686 61.0998 6.33353 61.0331 6.2002 60.8998V60.8998Z" fill="url(#paint3_linear_704_2479)"/>
<path style="mix-blend-mode:screen" d="M75.7004 14.8998C74.8004 15.2998 73.8004 15.3998 72.8004 15.6998C70.3004 16.3998 68.3004 18.3998 66.5004 20.1998C53.6337 33.3998 40.7671 46.5998 27.9004 59.7998C27.7004 60.0665 27.4671 60.3332 27.2004 60.5998C26.9337 60.8665 26.6671 61.1332 26.4004 61.3998C24.3004 63.5998 22.2004 65.9998 20.7004 68.6998C20.1004 69.7998 19.6004 70.9998 19.2004 72.1998C17.8004 72.5998 16.3004 72.0998 15.2004 70.8998C14.7337 70.4332 14.2671 69.9665 13.8004 69.4998C13.3004 68.9998 12.9004 68.3998 12.3004 67.9998C11.9004 67.6998 11.5004 67.4998 11.2004 67.1998C10.6004 66.6998 10.2004 66.0998 9.80039 65.4998C9.30039 64.8998 8.90039 64.2998 8.60039 63.6998C8.50039 63.4998 8.40039 63.3998 8.40039 63.1998C8.40039 62.9998 8.50039 62.6998 8.70039 62.4998C9.63372 61.4332 10.5671 60.3998 11.5004 59.3998C12.0004 58.7998 12.5004 58.2998 13.0004 57.7998C12.5337 58.0665 12.0337 58.3332 11.5004 58.5998C11.6337 58.5332 11.7337 58.4332 11.8004 58.2998C12.2004 57.8998 12.5004 57.3998 12.8004 56.8998C13.6004 55.2998 15.3004 54.0998 16.6004 52.8998C19.7337 50.0332 22.8337 47.1665 25.9004 44.2998C28.5004 41.8998 31.1004 39.4998 33.7004 37.0998C37.5004 33.6998 41.5004 29.4998 41.4004 24.3998C41.4004 22.2998 40.6004 20.3998 39.5004 18.6998C40.1004 19.3665 40.7004 20.0332 41.3004 20.6998C43.6337 18.5665 46.0004 16.4665 48.4004 14.3998C52.4004 10.7998 56.4004 7.29984 60.4004 3.89984C62.2004 2.39984 64.8004 2.59984 66.5004 4.39984C67.4004 5.29984 71.3004 9.09984 70.6004 10.3998C70.4671 10.7332 70.3004 11.0665 70.1004 11.3998C69.3004 12.6998 68.4004 13.7998 67.5004 14.8998C66.7671 15.7665 66.0004 16.6665 65.2004 17.5998C66.0004 17.2998 66.6004 16.7998 67.2004 16.2998C67.7004 15.7998 68.1004 15.3998 68.5004 14.9998C69.7004 13.8665 71.0004 12.8998 72.4004 12.0998C72.5004 11.9998 72.7004 11.8998 72.8004 11.9998C73.0004 11.9998 73.1337 12.0665 73.2004 12.1998C74.0004 12.8998 74.9004 13.8998 75.7004 14.8998V14.8998Z" fill="url(#paint4_linear_704_2479)"/>
</g>
<defs>
<linearGradient id="paint0_linear_704_2479" x1="-0.199745" y1="71.0005" x2="0.100255" y2="15.5005" gradientUnits="userSpaceOnUse">
<stop stop-color="#FFCE3B"/>
<stop offset="1" stop-color="#CC6923"/>
</linearGradient>
<linearGradient id="paint1_linear_704_2479" x1="0.9" y1="55.7005" x2="2.8" y2="1.20048" gradientUnits="userSpaceOnUse">
<stop stop-color="#FFCE3B"/>
<stop offset="1" stop-color="#CC6923"/>
</linearGradient>
<linearGradient id="paint2_linear_704_2479" x1="70.6002" y1="-17" x2="5.7002" y2="50.2" gradientUnits="userSpaceOnUse">
<stop stop-color="#F2DE6D"/>
<stop offset="1"/>
</linearGradient>
<linearGradient id="paint3_linear_704_2479" x1="78.0002" y1="-4.60003" x2="16.5004" y2="59.1" gradientUnits="userSpaceOnUse">
<stop stop-color="#F2DE6D"/>
<stop offset="1"/>
</linearGradient>
<linearGradient id="paint4_linear_704_2479" x1="91.9004" y1="3.99985" x2="27.3004" y2="70.8998" gradientUnits="userSpaceOnUse">
<stop stop-color="#F2DE6D"/>
<stop offset="1"/>
</linearGradient>
<clipPath id="clip0_704_2479">
<rect width="78" height="81" fill="white"/>
</clipPath>
</defs>
</svg>
