<svg width="309" height="100" viewBox="0 0 309 100" fill="none" xmlns="http://www.w3.org/2000/svg">
<g clip-path="url(#clip0_704_2407)">
<path d="M305.6 54.5001C303.4 58.6001 301.1 62.8001 298.6 66.7001C297.2 69.0001 295.8 71.7001 293.5 73.1001C293.2 73.3001 292.8 73.5001 292.6 73.8001C292.4 74.1001 292.4 74.4001 292.3 74.8001C291.7 77.0001 290.1 78.6001 288.7 80.4001C287.1 82.3334 285.467 84.2668 283.8 86.2001C281.3 89.2001 278.7 92.7001 275.5 95.0001C273.3 96.4001 271.3 96.9001 268.7 97.2001C263.5 97.9001 258.1 98.0001 252.9 98.2001C234.5 98.6668 216.1 99.0334 197.7 99.3001C179.233 99.5001 160.8 99.6001 142.4 99.6001C123.867 99.5334 105.367 99.3334 86.9001 99.0001C72.3001 99.0001 57.7001 98.3001 43.2001 97.9001C38.6001 97.8001 34.1001 98.1001 30.2001 95.3001C27.8001 93.7001 25.9001 91.5001 24.0001 89.5001C22.0001 87.4334 20.0667 85.3001 18.2001 83.1001C16.7001 81.2001 15.0001 79.5001 13.7001 77.4001C12.4334 75.3334 11.3667 73.1334 10.5001 70.8001C10.3001 70.1001 10.0001 69.4001 10.1001 68.7001C10.2001 68.0001 10.7001 67.3001 11.4001 67.2001C10.4001 66.6001 9.00008 66.8001 7.90008 66.3001C7.40008 66.0001 6.90008 65.5001 6.50008 65.0001C5.83341 64.1334 5.23341 63.2334 4.70008 62.3001C4.10008 61.3001 3.50008 60.4001 3.10008 59.4001C2.10008 57.4001 0.800078 55.0001 0.600078 52.8001C0.400078 49.6001 2.10008 46.6001 3.70008 44.0001C5.60008 40.8001 7.70008 37.8001 9.60008 34.6001C11.8001 31.1001 14.2001 27.8001 16.6001 24.5001C19.2667 20.9668 22.0334 17.5668 24.9001 14.3001C27.6001 11.1001 29.8001 8.5001 33.2001 5.9001C38.9001 1.4001 46.7001 1.5001 53.5001 1.4001C62.3001 1.2001 70.8001 1.1001 79.4001 1.0001C83.1334 1.0001 86.8334 0.966764 90.5001 0.900098C94.2334 0.900098 97.9334 0.866764 101.6 0.800098C105.333 0.800098 109.033 0.766764 112.7 0.700098C116.367 0.700098 120.067 0.666764 123.8 0.600098C127.467 0.600098 131.133 0.600098 134.8 0.600098C138.533 0.600098 142.233 0.600098 145.9 0.600098C149.567 0.600098 153.233 0.600098 156.9 0.600098C160.633 0.600098 164.333 0.600098 168 0.600098C171.667 0.600098 175.333 0.600098 179 0.600098C182.667 0.600098 186.333 0.600098 190 0.600098C193.667 0.666764 197.333 0.700098 201 0.700098C204.667 0.700098 208.333 0.733431 212 0.800098C215.667 0.800098 219.333 0.833431 223 0.900098C226.667 0.900098 230.333 0.933431 234 1.0001C237.6 1.06676 241.233 1.13343 244.9 1.2001C248.567 1.2001 252.233 1.23343 255.9 1.3001C259.5 1.36676 263.133 1.43343 266.8 1.5001C270.3 1.6001 273.6 1.8001 276.7 3.2001C277.1 3.4001 277.533 3.6001 278 3.8001C279.4 4.6001 280.8 5.6001 282.1 6.7001C285 9.1001 287.5 12.1001 289.9 15.1001C290.233 15.5001 290.567 15.8668 290.9 16.2001C291.1 16.4001 291.3 16.6001 291.4 16.8001C291.467 16.9334 291.533 17.0668 291.6 17.2001C291.733 17.4668 291.9 17.7334 292.1 18.0001C292.2 18.2001 292.3 18.5001 292.5 18.8001C292.767 19.1334 293 19.4668 293.2 19.8001C293.667 20.5334 294.1 21.2668 294.5 22.0001C294.8 22.7001 295.1 23.4001 295.3 24.1001C295.367 24.5001 295.433 24.9001 295.5 25.3001C295.5 25.4334 295.5 25.6001 295.5 25.8001C295.4 26.0001 295.4 26.2001 295.4 26.3001C295.7 26.4001 296.1 26.5001 296.4 26.6001C296.8 26.6668 297.167 26.8001 297.5 27.0001C298.1 27.3334 298.633 27.7334 299.1 28.2001C300.2 29.1001 301 30.2001 301.9 31.4001C302.1 31.7334 302.3 32.1001 302.5 32.5001C302.6 32.6001 302.7 32.8001 302.8 32.9001C302.933 33.0334 303.033 33.1668 303.1 33.3001C303.567 34.1001 304 34.8668 304.4 35.6001C305.267 37.1334 306.033 38.7334 306.7 40.4001C306.767 40.4668 306.8 40.5334 306.8 40.6001C307.3 41.9001 308 43.1001 308.3 44.5001C309.1 48.1001 307.3 51.5001 305.6 54.5001V54.5001Z" fill="url(#paint0_linear_704_2407)"/>
<path d="M305.6 54.4998C305.2 55.2998 304.766 56.0998 304.3 56.8998C304.166 57.2331 304 57.5331 303.8 57.7998C302.466 60.1998 301.033 62.4998 299.5 64.6998C298.633 65.8998 297.766 67.0665 296.9 68.1998C296 69.2998 295.3 70.2998 294 70.8998C293.8 71.0331 293.566 71.1331 293.3 71.1998C292.6 71.3998 291.8 71.4998 291 71.4998C288.8 71.6998 286.6 71.9331 284.4 72.1998C284.333 72.1998 284.3 72.1998 284.3 72.1998C283.1 72.2665 281.9 72.3665 280.7 72.4998C282.3 72.4331 283.9 72.4665 285.5 72.5998C287.766 72.7331 290.033 73.0665 292.3 73.5998C291.7 74.9998 290.9 76.3998 290 77.4998C286.8 81.1998 283.9 85.3998 279.8 88.1998C277.7 89.5998 275.6 90.0998 273.1 90.3998C267.8 91.0998 262.4 91.1998 257.3 91.3998C238.9 91.8665 220.5 92.2331 202.1 92.4998C193.1 92.6331 184.133 92.6998 175.2 92.6998C173 92.6998 170.8 92.7331 168.6 92.7998C161.333 92.7998 154.033 92.7998 146.7 92.7998C128.233 92.7331 109.766 92.5331 91.2997 92.1998C86.7664 92.1998 82.233 92.1331 77.6997 91.9998C67.5997 91.7998 57.5997 91.3998 47.4997 91.0998C42.9997 90.9998 38.3997 91.2998 34.4997 88.4998C32.1997 86.8998 30.1997 84.6998 28.2997 82.6998C28.0997 82.4998 27.8997 82.2998 27.6997 82.0998C25.9664 80.2331 24.2997 78.3331 22.6997 76.3998C21.3997 74.7998 20.0997 73.1998 18.6997 71.6998C18.0997 70.9998 17.5997 70.1998 17.0997 69.3998C16.4997 68.3998 15.7997 67.3998 15.5997 66.1998C15.4997 65.9998 15.4997 65.6998 15.5997 65.5998C15.7997 65.3998 15.8997 65.3998 16.0997 65.3998C19.3997 64.7998 22.7997 65.0998 25.9997 64.4998C26.6664 64.3665 27.2997 64.1998 27.8997 63.9998C24.9664 63.9331 21.9997 63.8998 18.9997 63.8998C18.2664 63.8998 17.533 63.8665 16.7997 63.7998C16.4664 63.7998 16.1664 63.7665 15.8997 63.6998C14.5997 63.3998 13.3997 62.6998 12.3997 61.6998C11.933 61.2331 11.533 60.6998 11.1997 60.0998C9.89969 57.5998 8.59969 55.0998 7.39969 52.5998C6.49969 50.5998 5.09969 48.2998 4.99969 45.9998C4.99969 45.9331 4.99969 45.8331 4.99969 45.6998C4.89969 44.1998 5.29969 42.6998 5.89969 41.2998C6.79969 38.8998 8.39969 36.6998 9.59969 34.5998C11.7997 31.0998 14.1997 27.7998 16.5997 24.4998C19.2664 20.9665 22.033 17.5665 24.8997 14.2998C25.3664 13.6331 25.8664 13.0331 26.3997 12.4998C28.4997 10.0998 30.4997 7.9998 33.1997 5.8998C38.8997 1.3998 46.6997 1.4998 53.4997 1.3998C62.2997 1.1998 70.7997 1.0998 79.3997 0.999805C83.133 0.999805 86.833 0.966471 90.4997 0.899805C94.233 0.899805 97.933 0.866471 101.6 0.799805C105.333 0.799805 109.033 0.766471 112.7 0.699805C116.433 0.699805 120.133 0.666471 123.8 0.599805C127.466 0.599805 131.133 0.599805 134.8 0.599805C138.533 0.599805 142.233 0.599805 145.9 0.599805C149.566 0.533138 153.233 0.533138 156.9 0.599805C160.633 0.533138 164.333 0.533138 168 0.599805C171.666 0.599805 175.333 0.599805 179 0.599805C182.666 0.599805 186.333 0.599805 190 0.599805C193.666 0.666471 197.333 0.699805 201 0.699805C204.666 0.699805 208.333 0.733138 212 0.799805C215.666 0.799805 219.333 0.833138 223 0.899805C226.666 0.899805 230.333 0.933138 234 0.999805C237.6 1.06647 241.233 1.13314 244.9 1.1998C248.566 1.1998 252.233 1.23314 255.9 1.2998C259.566 1.36647 263.2 1.43314 266.8 1.4998C270.3 1.5998 273.6 1.7998 276.7 3.1998C277.1 3.3998 277.533 3.5998 278 3.7998C281.4 5.6998 284.3 8.4998 286.9 11.3998C287.5 12.0665 288.1 12.7665 288.7 13.4998C289.7 14.5998 290.7 15.8998 291.6 17.1998C292.6 18.7331 293.566 20.2998 294.5 21.8998C294.7 22.3998 295 22.9998 294.6 23.2998C294.5 23.4998 294.3 23.5998 294 23.6998C290.8 24.4998 287.5 24.9998 284.3 24.9998C285.766 25.2665 287.233 25.4665 288.7 25.5998C290.633 25.8665 292.566 25.9998 294.5 25.9998C295.9 25.9998 297.4 25.9998 298.6 26.6998C298.6 26.7665 298.633 26.7998 298.7 26.7998C300.1 27.6998 300.9 29.5998 301.8 30.9998C302.7 32.6998 303.6 34.2998 304.6 35.8998C305.4 37.0998 305.9 38.3998 306.4 39.6998C306.533 39.9665 306.666 40.2665 306.8 40.5998C307.3 41.8998 308 43.0998 308.3 44.4998C309.1 48.0998 307.3 51.4998 305.6 54.4998V54.4998Z" fill="url(#paint1_linear_704_2407)"/>
<path fill-rule="evenodd" clip-rule="evenodd" d="M298.7 26.8C292.2 28.2 283.7 27.3 279.1 27.7C273.8 28.2 268.7 28.9 263.5 29.5C260.766 29.9 258.033 30.2333 255.3 30.5C253.1 30.8 251.1 30.9 249 31.7C247 32.5 244.7 32.3 242.5 32.4C239.833 32.4667 237.133 32.5667 234.4 32.7C223.466 33.3 212.6 34.3 201.8 35.7C196.4 36.3667 191 37.1667 185.6 38.1C182.933 38.5667 180.266 39.0667 177.6 39.6C176.266 39.8667 174.933 40.1333 173.6 40.4C172.866 40.5333 172.166 40.6667 171.5 40.8C171 40.9 170.2 41.2 169.7 41.2C172.5 41.6 175.1 42.7 177.4 44.3C153.5 47.8 129.5 50.2 105.4 51.4C100.7 51.7 95.9997 51.8 91.2997 51.4C88.9997 51.2 86.6997 50.9 84.4997 50.4C81.2997 49.6 77.9997 50 74.7997 49.9C68.9997 49.8333 63.1997 49.6667 57.3997 49.4C47.0997 48.8 36.8997 48.1 26.5997 47.5C19.7997 47 11.8997 47.4 4.99969 45.7C4.89969 44.2 5.29969 42.7 5.89969 41.3C13.3997 40.4 21.9997 41.7 29.1997 41.9C39.3997 42 49.6997 41.8 59.9997 41.6C80.0997 41 100.2 41.4 120.4 40.5C134.5 40 148.5 38.4 162.4 36.4C153.1 36.3 143.9 36 134.6 35.2C114.4 33.7 93.9997 31.2 73.7997 32.1C63.4997 32.6 53.4997 31.8 43.2997 30.9C38.2997 30.5 33.1997 30.1 28.2997 28.9C24.1997 27.9 20.4997 26 16.5997 24.5C19.2664 20.9667 22.033 17.5667 24.8997 14.3C25.3664 13.6333 25.8664 13.0333 26.3997 12.5C28.5997 12.2 30.7997 12 33.0997 12C39.0997 12.1 44.9997 13 50.8997 13.7C61.8997 15.1 72.1997 17.8 82.9997 20.2C93.9997 22.7 105.6 23.6 116.9 25C127.8 26.3 138.7 27.3 149.7 27.7C169.9 28.3 190.7 26.8 210.6 23.3C230 19.8 249.5 16.3 269.1 15.1C275.3 14.7 282.1 13.6 288.7 13.5C289.7 14.6 290.7 15.9 291.6 17.2C292.6 18.7333 293.566 20.3 294.5 21.9C294.7 22.4 295 23 294.6 23.3C294.5 23.5 294.2 23.6 294 23.7C290.8 24.5 287.5 25 284.3 25C287.633 25.6 291.033 25.9333 294.5 26C295.9 26 297.4 26 298.6 26.7C298.6 26.7667 298.633 26.8 298.7 26.8V26.8ZM305.6 54.5C305.2 55.3 304.766 56.1 304.3 56.9C304.166 57.2333 304 57.5333 303.8 57.8C302.466 60.2 301.033 62.5 299.5 64.7C292.9 64.9 286.3 65.0667 279.7 65.2C266 65.5 252.2 64.8 238.7 66.9C216.4 70.4 194 79.7 175.2 92.7C173 92.7 170.8 92.7333 168.6 92.8C188.8 78.7 209 65.9 232.9 59C220.2 58.8 207.5 58.6 194.9 60.2C173.9 62.8 152.8 67 132.8 73.9C114.3 80.3 96.9997 89.1 77.6997 92C67.5997 91.8 57.5997 91.4 47.4997 91.1C42.9997 91 38.3997 91.3 34.4997 88.5C32.1997 86.9 30.1997 84.7 28.2997 82.7C28.0997 82.5 27.8997 82.3 27.6997 82.1C35.7997 81.7 43.7997 81.5 51.8997 80.3C63.4997 78.7 74.9997 77.9 86.2997 74.7C88.2997 74.1 90.3997 73.2 92.4997 73.2C93.3997 73.2 94.1997 73.3 94.9997 73.1C97.6997 72.6 100.3 71.9 103 71.4C108.333 70.2667 113.7 69.2667 119.1 68.4C127.433 67.0667 135.8 66.0333 144.2 65.3C133.8 63.2 123.3 61.5 112.7 62C115.4 61.8 118.1 61.2 120.8 60.8C123.533 60.4 126.266 60 129 59.6C134.533 58.7333 140.033 57.9 145.5 57.1C156.5 55.4333 167.5 53.7333 178.5 52C183.3 51.2667 188.066 50.5333 192.8 49.8C197.4 49.1 202 48.5 206.5 47.6C227.2 43.5 247.5 40.3 268.5 39.8C278.633 39.6 288.766 39.5333 298.9 39.6C301.4 39.6 303.9 39.6 306.4 39.7C306.533 39.9667 306.666 40.2667 306.8 40.6C307.3 41.9 308 43.1 308.3 44.5C309.1 48.1 307.3 51.5 305.6 54.5V54.5Z" fill="url(#paint2_linear_704_2407)"/>
<path d="M293.6 41.8999C294.1 43.6999 295.1 45.2999 296.3 46.5999C296.5 46.7999 296.8 47.0999 296.8 47.3999C296.8 47.5999 296.7 47.6999 296.6 47.8999C295.8 49.5666 294.966 51.2332 294.1 52.8999C293.7 53.6999 293.266 54.5332 292.8 55.3999C292.7 55.7999 292.5 56.0999 292.3 56.4999C292.1 57.2999 291.5 57.8999 291 58.5999C290 59.8999 289 61.1999 287.8 62.3999C287.4 62.7999 286.9 63.0999 286.5 63.5999C285.3 65.1999 284.2 66.7999 283.2 68.4999C282.8 69.0999 282.8 69.6999 282.6 70.3999C282.466 70.7999 282.3 71.1332 282.1 71.3999C280.9 72.8999 279.2 73.9999 277.9 75.3999C276.7 76.4999 275.6 77.8999 274.3 78.8999C270.8 81.4999 266.3 80.6999 262 81.0999C253.5 82.0999 244.9 81.1999 236.4 80.8999C224.1 80.4999 212.9 82.2999 200.7 82.0999C194.766 82.0332 188.833 81.9666 182.9 81.8999C183.5 82.9666 184.066 84.0332 184.6 85.0999C179 81.9999 172.3 81.7999 165.8 81.6999C158.2 81.5999 150.5 81.5999 142.8 81.5999C141.5 81.5999 140.2 81.5999 139 82.1999C137.9 82.8999 137 84.2999 137.6 85.4999C137.1 82.9999 133.8 82.3999 131.3 82.3999C107.9 82.1332 84.4998 81.8666 61.0998 81.5999C58.3998 81.5999 55.5998 81.4999 52.8998 81.3999C50.2998 81.1999 47.6998 80.9999 45.0998 80.5999C43.8331 80.3332 42.5665 80.0332 41.2998 79.6999C40.6998 79.5666 40.0998 79.3999 39.4998 79.1999C38.6998 78.9999 38.1998 78.5999 37.4998 78.0999C37.0998 77.8999 36.6998 77.5999 36.3998 77.1999C35.2998 75.2999 33.9998 73.5999 32.5998 71.8999C31.5998 70.6999 30.5665 69.4999 29.4998 68.2999C28.9665 67.7666 28.4331 67.1999 27.8998 66.5999C26.6998 65.2999 25.7998 63.6999 24.8998 62.0999C21.7998 56.5999 19.2998 50.7999 16.7998 44.9999C23.3998 53.3999 30.9998 61.2999 37.4998 69.5999C39.2998 71.7999 41.0998 74.0999 43.6998 75.3999C46.2998 76.6999 49.2998 76.7999 52.1998 76.8999C122.2 79.2999 192.3 78.6999 262.4 75.3999C266.2 75.1999 270.3 74.8999 273.6 72.9999C276.4 71.4999 278.5 68.9999 280.4 66.4999C285.8 59.2999 290.1 50.1999 293.6 41.8999V41.8999Z" fill="#EB924D"/>
<path d="M215.4 10.7998C214.8 11.5998 214.2 12.3998 213.3 12.8998C212.1 13.4998 210.7 13.4998 209.3 13.2998C208.366 13.2331 207.466 13.0998 206.6 12.8998C208.133 12.3665 209.733 11.9998 211.4 11.7998C211.8 11.6998 212.2 11.6998 212.6 11.4998C213 11.2998 213.2 10.9998 213.5 10.6998C214.166 9.83314 214.9 8.9998 215.7 8.1998C216.433 7.46647 217.2 6.73314 218 5.9998C218.266 5.73314 218.5 5.4998 218.7 5.2998C218.833 5.23314 218.933 5.13314 219 4.9998C219.1 4.9998 219.2 4.7998 219.3 4.7998C218.9 5.5998 218.4 6.3998 217.9 7.1998C217.366 7.9998 216.833 8.76647 216.3 9.4998C216.033 9.96647 215.733 10.3998 215.4 10.7998V10.7998Z" fill="#EB924D"/>
<path d="M23.1004 29.4001C22.5004 29.2001 21.9004 29.0334 21.3004 28.9001C21.1004 28.8001 19.8004 28.5001 20.1004 28.2001C20.2004 28.2001 20.5004 28.2001 20.6004 28.2001C20.7337 28.2001 20.8671 28.2001 21.0004 28.2001C21.3337 28.2001 21.6671 28.2001 22.0004 28.2001C22.6671 28.2001 23.3337 28.1668 24.0004 28.1001C25.5004 28.1001 27.0004 28.1001 28.3004 28.8001C27.5004 30.2668 26.7004 31.7001 25.9004 33.1001C25.9004 32.5001 25.9004 31.8668 25.9004 31.2001C26.0004 30.8001 25.9004 30.4001 25.7004 30.2001C25.5671 30.1334 25.4337 30.0668 25.3004 30.0001C24.5671 29.8001 23.8337 29.6001 23.1004 29.4001V29.4001Z" fill="#EB924D"/>
<path d="M34.2002 62.6C32.9002 61.7 32.1002 60.3 31.5002 58.9C30.9002 57.5 30.4002 56 29.7002 54.7C31.5002 54.1 33.4002 54.3 35.2002 54.4C38.4669 54.6 41.7335 54.6 45.0002 54.4C46.0002 54.4 47.0002 54.4 47.9002 54.7C43.1669 55.2333 38.4002 55.9333 33.6002 56.8C33.3002 56.8 32.9002 56.9 32.7002 57.2C32.6002 57.3 32.6002 57.6 32.5002 57.8C32.4002 59.1 33.0002 60.3 33.6002 61.4C33.8002 61.9 34.1002 62.1 34.2002 62.6V62.6Z" fill="#EB924D"/>
<path d="M282.5 42.3998C281.7 42.3332 280.9 42.2665 280.1 42.1998C279.9 42.1998 279.7 42.1998 279.5 42.1998C279.367 42.2665 279.267 42.2665 279.2 42.1998C278.867 42.1332 278.5 42.0665 278.1 41.9998C277.433 41.8665 276.767 41.7331 276.1 41.5998C275.567 41.4665 275.033 41.3665 274.5 41.2998C274.6 41.2998 274.8 41.2998 275 41.2998C275.133 41.2998 275.3 41.2998 275.5 41.2998C275.833 41.2998 276.167 41.2998 276.5 41.2998C277.167 41.2331 277.833 41.1665 278.5 41.0998C279.233 41.0331 279.933 40.9331 280.6 40.7998C280.8 40.7998 281.1 40.6998 281.4 40.7998C281.6 40.8665 281.833 40.8665 282.1 40.7998C283.5 40.7998 284.8 40.7998 286.2 40.9998C286.333 40.9998 286.467 40.9998 286.6 40.9998C287 41.0998 287.4 41.1998 287.7 41.3998C287.9 41.5998 288.1 41.7998 288.2 42.0998C288.733 42.8998 289.267 43.7331 289.8 44.5998C289.867 44.7331 289.933 44.8998 290 45.0998C290 45.2998 290 45.4998 289.9 45.6998C289.6 46.8998 289 47.8998 288.2 48.7998C288.4 47.6998 288.6 46.5998 288.2 45.5998C287.9 44.5998 287 43.7998 286 43.2998C285.1 42.7998 283.9 42.5998 282.9 42.4998C282.767 42.4331 282.633 42.3998 282.5 42.3998V42.3998Z" fill="#EB924D"/>
<path fill-rule="evenodd" clip-rule="evenodd" d="M296.5 46.5002C296.2 47.3002 295.6 48.4002 295.3 48.8002C293.2 52.7002 291.4 56.0002 289.3 59.1002C287.7 61.4002 285.9 63.8002 284.1 66.1002C281 69.9002 277.8 73.6002 274.5 77.2002C274.1 77.7002 273.7 78.2002 273.1 78.4002C269.3 80.3002 262.5 79.4002 258.3 79.6002H256.9C238.7 80.1002 220.2 80.5002 201.9 80.7002C198.8 80.7002 195.7 80.8002 192.6 80.8002C191.3 80.8002 190.2 80.6002 188.9 80.7002C187.433 80.8335 185.933 81.0002 184.4 81.2002C184.733 82.8669 185.167 84.5002 185.7 86.1002C184.6 84.7002 183.4 83.3002 181.9 82.3002C180.6 81.5002 179.1 80.9002 177.6 80.9002C171 80.9002 164.3 81.0002 157.7 81.0002C157.567 81.0002 157.433 81.0002 157.3 81.0002C154.5 81.0002 151.733 81.0002 149 81.0002C148.4 81.0002 147.7 81.0002 147.1 81.0002C146.5 81.1002 146 80.9002 145.4 80.8002C144.133 80.6669 142.833 80.6669 141.5 80.8002C141.2 80.8002 141 80.9002 140.8 81.0002C140.6 81.2002 140.5 81.4002 140.4 81.6002C139.133 84.7335 137.833 87.8335 136.5 90.9002C136.967 87.8335 137.433 84.8002 137.9 81.8002C138 81.6002 138 81.3002 137.8 81.1002C137.7 80.8002 137.3 80.8002 137 80.8002C135.667 80.8002 134.367 80.8002 133.1 80.8002C131.9 80.8002 130.6 80.9002 129.4 80.9002C116.733 80.7669 104.1 80.6002 91.5 80.4002H91.3C75.4 80.4002 59.4 79.7002 43.5 79.2002C40.7 79.2002 39.3 77.2002 37.5 75.3002L36.8 74.6002C34.4 72.0002 32 69.3002 29.9 66.6002C27.7 63.8002 25.6 60.9002 23.7 57.9002C21.6 54.6002 19.7 51.1002 18.1 47.6002C17.9 47.1335 17.6667 46.6669 17.4 46.2002C17.3 45.9002 17.1 45.6002 17 45.3002C17.4 44.5002 18.1 43.3002 18.7 42.4002C19.0333 41.8002 19.3667 41.2335 19.7 40.7002C20.7667 39.0335 21.8667 37.3669 23 35.7002C23.5333 34.9669 24.0667 34.2669 24.6 33.6002C25 33.0002 25.3 32.3002 25.9 31.8002C26.3667 31.3335 26.8 30.8002 27.2 30.2002C27.3 30.1002 27.3 30.0002 27.3 29.9002C27.2 29.8002 27.1 29.7002 27 29.7002C24.5 28.7002 21.8 28.3002 19 28.5002C19.9 28.0002 21 27.9002 22 27.9002C23.2667 27.8335 24.5667 27.7669 25.9 27.7002C26.8 27.7002 27.8 27.6002 28.6 27.3002C29.2 27.1002 29.7333 26.7669 30.2 26.3002C30.7 25.9002 30.9 25.3002 31.3 24.8002C31.5 24.4002 31.9 24.1002 32.2 23.8002C32.7 23.2002 33.2 22.6002 33.8 22.0002C36.3 19.0002 38 17.1002 40.4 15.2002C45 11.6002 54.4 13.2002 59.7 13.1002C70 12.9002 80.4 12.7002 90.7 12.7002C94.3667 12.6335 98.0333 12.6002 101.7 12.6002C105.433 12.5335 109.133 12.5002 112.8 12.5002C120.133 12.4335 127.5 12.4002 134.9 12.4002C138.567 12.4002 142.233 12.3669 145.9 12.3002C159.6 12.3002 173.3 12.3002 187 12.4002C192 12.4002 197.1 12.2002 202.1 12.6002C204.8 12.8002 207.6 12.7002 210.3 12.7002C211 12.6002 211.7 12.6002 212.3 12.4002C213 12.2002 213.5 11.5002 214.1 11.1002C214.8 10.4002 215.3 9.6002 215.9 8.8002C217.033 7.2002 218.3 5.66686 219.7 4.2002C218.433 6.86686 217.2 9.5002 216 12.1002C217.3 12.4002 218.6 12.5002 220 12.6002C221.1 12.7002 222.2 12.5002 223.2 12.6002C225.7 12.7002 228.2 12.7002 230.7 12.7002C231.7 12.7669 232.733 12.8002 233.8 12.8002C237.467 12.8669 241.133 12.9002 244.8 12.9002C248.4 12.9669 252.033 13.0335 255.7 13.1002C259.3 13.1669 262.933 13.2335 266.6 13.3002C269 13.3002 270.8 13.4002 271.9 14.0002C272.033 14.0002 272.167 14.0335 272.3 14.1002C278.9 17.8002 283.9 25.9002 288.2 32.0002C290 34.4002 291.6 36.9002 293 39.3002C294.1 41.0002 294.9 42.7002 295.9 45.1002C296.1 45.5002 296.5 46.4002 296.5 46.5002V46.5002ZM289.3 46.3002C289.4 46.1002 288.8 45.1002 288.7 44.9002C288.5 44.7002 288.2 44.5002 288 44.3002C287.6 43.7002 287.4 42.9002 286.7 42.5002C286.5 42.4002 286.2 42.3002 285.9 42.3002C281.567 41.7669 277.233 41.4669 272.9 41.4002C276.9 41.4002 280.9 40.5002 284.5 38.9002C284.6 37.6002 283.5 36.7002 282.9 35.8002C282.233 34.8669 281.567 33.9002 280.9 32.9002C277.5 28.0002 273.6 22.5002 269.4 20.0002C269 19.9002 268.3 19.8002 266.5 19.8002C262.833 19.7335 259.2 19.6669 255.6 19.6002C251.933 19.5335 248.3 19.5002 244.7 19.5002C241.033 19.4335 237.367 19.3669 233.7 19.3002C230.1 19.3002 226.467 19.2669 222.8 19.2002C199.8 19.0002 178.3 18.9002 157.2 18.9002C153.467 18.9002 149.7 18.9002 145.9 18.9002C142.233 18.9002 138.567 18.9002 134.9 18.9002C127.567 18.9669 120.2 19.0002 112.8 19.0002C109.133 19.0669 105.467 19.1002 101.8 19.1002C98.1 19.2002 94.4 19.2002 90.7 19.2002C83.5 19.2002 76.2 19.4002 69.1 19.5002C66.0333 19.5669 62.9333 19.6002 59.8 19.6002H59.3C58.1 19.6002 56.7667 19.5669 55.3 19.5002C53.8 19.4002 52.3 19.4002 50.8 19.4002C45.9 19.4002 44.7 20.2002 44.5 20.3002C42.5 21.8002 41.1 23.5002 38.7 26.3002C36.1 29.3002 33.6 32.4002 31.3 35.5002C29.5 37.9002 27.2 41.0002 25.3 44.1002C25.0333 44.6335 24.7333 45.1335 24.4 45.6002C24.3 45.7002 24.8 46.6002 24.9 46.7002C25.1667 47.3002 25.4667 47.9002 25.8 48.5002C26 48.9002 26.3 49.4002 26.6 49.8002C26.8 50.1002 26.9 50.4002 27.2 50.7002C27.6 51.4002 28.4 51.9002 29.1 52.2002C30.2 52.7002 31.4 52.8002 32.6 52.9002C38.2 53.4335 43.7667 53.9669 49.3 54.5002C43.5 54.9669 37.7 55.4335 31.9 55.9002C31.6 55.9002 31.1 56.0002 31 56.4002C30.9 56.6002 31 56.9002 31.2 57.1002C31.8667 58.1669 32.5 59.2002 33.1 60.2002C33.7 61.0002 34.4 61.7002 35 62.5002C37.1 65.1002 39.3 67.6002 41.5 70.0002L42.3 70.8002C42.5667 71.0669 42.8 71.3335 43 71.6002C43.4 72.0002 43.8 72.4002 44.1 72.7002C48.3 72.8335 52.5 72.9669 56.7 73.1002C68.1 73.5002 79.8 73.8002 91.3 73.8002H91.6C109.9 74.2002 128.5 74.4002 146.8 74.4002C150.4 74.4669 154.033 74.5002 157.7 74.5002C172.4 74.5002 187.2 74.4002 201.8 74.2002C220.1 73.9002 238.6 73.6002 256.7 73.1002L258.2 73.0002C258.533 73.0002 258.867 73.0002 259.2 73.0002C260.067 73.0002 261.033 73.0335 262.1 73.1002C263.1 73.1002 264.1 73.1002 265.1 73.1002C267.8 73.1002 269.1 72.9002 269.8 72.7002C273.1 69.1002 276.2 65.5002 278.9 62.1002C280.7 59.9002 282.3 57.6002 283.8 55.4002C285.7 52.7002 287.3 49.8002 289.3 46.3002V46.3002ZM272.6 41.4002C272.667 41.4002 272.767 41.4002 272.9 41.4002C272.767 41.4002 272.667 41.4002 272.6 41.4002Z" fill="url(#paint3_linear_704_2407)"/>
<path d="M292.3 73.5999C291.7 74.9999 290.9 76.3999 290 77.4999C286.8 81.1999 283.9 85.3999 279.8 88.1999C277.7 89.5999 275.6 90.0999 273.1 90.3999C267.8 91.0999 262.4 91.1999 257.3 91.3999C238.9 91.8666 220.5 92.2332 202.1 92.4999C193.1 92.6332 184.134 92.6999 175.2 92.6999C173 92.6999 170.8 92.7332 168.6 92.7999C161.334 92.7999 154.034 92.7999 146.7 92.7999C128.234 92.7332 109.767 92.5332 91.3004 92.1999C86.7671 92.1999 82.2337 92.1332 77.7004 91.9999C67.6004 91.7999 57.6004 91.3999 47.5004 91.0999C43.0004 90.9999 38.4004 91.2999 34.5004 88.4999C32.2004 86.8999 30.2004 84.6999 28.3004 82.6999C28.1004 82.4999 27.9004 82.2999 27.7004 82.0999C25.9671 80.2332 24.3004 78.3332 22.7004 76.3999C21.4004 74.7999 20.1004 73.1999 18.7004 71.6999C18.1004 70.9999 17.6004 70.1999 17.1004 69.3999C16.5004 68.3999 15.8004 67.3999 15.6004 66.1999C15.5004 65.9999 15.5004 65.6999 15.6004 65.5999C15.8004 65.3999 15.9004 65.3999 16.1004 65.3999C19.4004 64.7999 22.8004 65.0999 26.0004 64.4999C26.5337 64.4332 27.1004 64.3999 27.7004 64.3999C25.1671 65.2666 22.5671 65.8332 19.9004 66.0999C19.3004 66.1999 18.6004 66.2999 18.2004 66.6999C17.4004 67.5999 17.8004 68.6999 18.3004 69.4999C18.7004 70.2332 19.1337 70.9332 19.6004 71.5999C20.5337 72.9332 21.5337 74.1666 22.6004 75.2999C24.3004 77.1999 26.1004 78.9999 28.0004 80.7999C29.2671 81.9999 30.5671 83.2332 31.9004 84.4999C32.8004 85.3999 33.7004 86.1999 34.7004 86.8999C36.5004 88.0999 38.6004 88.5999 40.6004 89.1999C41.6671 89.4666 42.7004 89.6999 43.7004 89.8999C44.1004 89.8999 44.4004 89.9999 44.8004 89.9999C45.2004 89.9999 45.6004 89.9999 45.9004 90.0999C46.8337 90.1666 47.7337 90.2332 48.6004 90.2999C50.4671 90.3666 52.3004 90.3666 54.1004 90.2999C55.5004 90.1999 56.9004 90.0999 58.3004 89.6999C59.0004 89.4999 59.7004 89.5999 60.4004 89.6999C62.2004 89.9666 64.0004 90.2332 65.8004 90.4999C66.9004 90.4999 68.0004 90.8999 69.1004 90.7999C69.4004 90.7999 69.7004 90.6999 70.0004 90.6999C70.2004 90.6999 70.4337 90.6999 70.7004 90.6999C71.9004 90.8999 73.1004 91.1999 74.4004 91.3999C75.9004 91.5999 77.7004 91.7999 79.3004 91.4999C79.4337 91.4332 79.5337 91.3666 79.6004 91.2999C80.0004 91.1999 80.4004 91.2999 80.8004 91.2999C83.1337 91.3666 85.4337 91.3999 87.7004 91.3999C92.3671 91.5332 97.0004 91.6332 101.6 91.6999C106.2 91.8332 110.834 91.9332 115.5 91.9999C117.8 92.0999 120.1 92.0999 122.4 92.1999C122.7 92.1999 122.9 92.0999 123.2 91.9999C124 91.7999 124.8 91.7999 125.6 91.6999C126.534 91.6332 127.467 91.5666 128.4 91.4999C132.067 91.2999 135.734 91.1666 139.4 91.0999C143.134 91.0332 146.834 91.0332 150.5 91.0999C154.2 91.0999 157.9 91.1999 161.6 91.2999C162.4 91.2999 163.2 91.3332 164 91.3999C166.267 91.4666 168.5 91.4999 170.7 91.4999C171.4 91.5999 172 91.4999 172.6 91.6999C173.2 91.7999 173.7 91.9999 174.4 91.8999C176.267 91.8332 178.1 91.7999 179.9 91.7999C183.634 91.6666 187.367 91.5666 191.1 91.4999C194.767 91.3666 198.467 91.2666 202.2 91.1999C203.2 91.1999 204.234 91.1999 205.3 91.1999C226.8 90.7999 247.7 89.7999 269.2 89.6999C271.3 89.6999 273.5 89.5999 275.4 88.7999C277.3 87.9999 279 86.2999 279 84.2999C279.1 84.7999 279.7 85.1999 280.2 85.0999C280.8 85.0999 281.4 84.6999 281.8 84.2999C285.3 81.5999 288.8 78.6999 290.6 74.7999C288.934 73.8666 287.234 73.1332 285.5 72.5999C287.767 72.7332 290.034 73.0666 292.3 73.5999V73.5999Z" fill="#EB924D"/>
<path d="M305.6 54.5001C305.2 55.3001 304.767 56.1001 304.3 56.9001C304.167 57.2334 304 57.5334 303.8 57.8001C302.467 60.2001 301.034 62.5001 299.5 64.7001C298.634 65.9001 297.767 67.0668 296.9 68.2001C296 69.3001 295.3 70.3001 294 70.9001C293.8 71.0334 293.567 71.1334 293.3 71.2001C297.6 65.7001 301.8 60.2001 304.4 53.8001C305.3 51.5001 306 49.1001 307.2 47.0001C307.4 46.6001 307.6 46.2001 307.6 45.8001C307.5 45.5001 307.4 45.2001 307.2 44.9001C306 42.6001 304.6 40.1001 302.2 39.3001C301.7 39.2001 301.2 38.9001 301.3 38.4001C301.4 38.2001 301.6 38.1001 301.8 38.0001C302.6 37.3001 302.2 36.0001 301.8 35.1001C300.867 33.2334 299.967 31.4001 299.1 29.6001C298.7 28.9001 298.4 28.3001 297.9 27.8001C297.3 27.4001 296.6 27.2001 295.9 27.1001C293.5 26.5001 291.1 26.0001 288.7 25.6001C290.634 25.8668 292.567 26.0001 294.5 26.0001C295.9 26.0001 297.4 26.0001 298.6 26.7001C298.6 26.7668 298.634 26.8001 298.7 26.8001C300.1 27.7001 300.9 29.6001 301.8 31.0001C302.7 32.7001 303.6 34.3001 304.6 35.9001C305.4 37.1001 305.9 38.4001 306.4 39.7001C306.534 39.9668 306.667 40.2668 306.8 40.6001C307.3 41.9001 308 43.1001 308.3 44.5001C309.1 48.1001 307.3 51.5001 305.6 54.5001V54.5001Z" fill="#EB924D"/>
<path d="M294.6 23.2998C294.5 23.4998 294.3 23.5998 294 23.6998C291.866 20.4331 289.733 17.1998 287.6 13.9998C286.5 12.3998 285.8 10.8998 284.1 9.9998C282.7 9.2998 281.6 8.2998 280.1 7.8998C279.4 7.6998 278.7 7.4998 278.3 6.9998C278.1 6.6998 278 6.2998 277.9 5.8998C277.1 4.2998 275.3 4.3998 273.9 3.7998C273.4 3.5998 273 3.5998 272.5 3.4998C271.166 3.43314 269.8 3.36647 268.4 3.2998C265.6 3.16647 262.833 2.9998 260.1 2.7998C255.233 2.53314 250.366 2.26647 245.5 1.9998C242.8 1.8998 240.1 1.6998 237.5 1.6998C234.8 1.7998 232.2 1.9998 229.5 1.7998C228.7 1.7998 227.9 1.7998 227.1 1.5998C226.3 1.2998 225.5 1.3998 224.7 1.3998C222.7 1.46647 220.733 1.53314 218.8 1.5998C213.2 1.6998 207.7 1.9998 202.1 1.9998C201.1 1.9998 200 1.9998 199.1 2.4998C198.1 2.9998 197.8 3.7998 197.7 4.7998C197.7 4.9998 197.7 5.0998 197.6 5.2998C197.4 5.4998 197.2 5.3998 197 5.2998C196.2 4.9998 195.5 4.2998 195 3.6998C194.6 3.23314 194.2 2.7998 193.8 2.3998C193.5 2.0998 193.4 1.8998 193 1.7998C192.7 1.7998 192.3 1.9998 192 1.9998C190.666 2.1998 189.333 2.33314 188 2.3998C186.6 2.3998 185.233 2.36647 183.9 2.2998C183.3 2.2998 182.6 2.2998 182.1 2.0998C181.7 1.9998 181.3 1.7998 180.9 1.7998C179.6 1.6998 178.2 1.7998 176.8 1.7998C175.4 1.7998 174.033 1.83314 172.7 1.8998C167.1 1.96647 161.533 2.03314 156 2.0998C153.6 2.0998 151.166 2.13314 148.7 2.1998C147.5 2.1998 146.2 2.2998 145.1 2.8998C143.4 3.6998 144.5 5.7998 144.3 7.1998C144.1 5.3998 143.7 3.2998 142.1 2.5998C141.5 2.3998 140.8 2.3998 140.2 2.3998C140.133 2.3998 140.033 2.3998 139.9 2.3998C137.166 2.33314 134.4 2.2998 131.6 2.2998C127.1 2.2998 122.5 2.0998 117.9 1.9998C105.1 1.7998 92.2997 2.0998 79.4997 2.1998C73.9664 2.26647 68.3997 2.33314 62.7997 2.3998C61.3997 2.3998 59.9997 2.3998 58.5997 2.3998C51.7997 2.4998 44.7997 2.5998 38.3997 4.9998C36.4997 5.7998 34.7997 6.7998 33.2997 8.0998C32.5664 8.6998 31.9664 9.3998 31.4997 10.1998C33.6997 11.1998 35.9997 11.8998 38.3997 12.0998C37.1997 12.4998 35.8997 12.5998 34.6997 12.5998C33.033 12.5998 31.3997 12.6331 29.7997 12.6998C29.1997 12.6998 28.5997 12.6998 28.0997 12.7998C27.0997 13.0998 26.1997 13.6998 25.4997 14.3998C25.0997 14.7998 24.7997 15.1998 24.4997 15.6998C24.2997 15.9998 24.1997 16.3998 23.9997 16.6998C23.3997 17.7998 22.4997 18.6998 21.6997 19.6998C20.833 20.7665 19.9997 21.8331 19.1997 22.8998C14.7997 28.4998 10.2997 34.2998 7.59969 40.9998C6.99969 42.3998 6.59969 43.8998 6.19969 45.4998C5.89969 46.8998 8.09969 47.1998 9.39969 47.7998C10.7997 48.4998 12.2997 48.7998 13.4997 49.5998C11.9664 49.3331 10.3997 49.1998 8.79969 49.1998C8.49969 49.1998 8.09969 49.1998 7.99969 49.3998C7.69969 49.6998 7.79969 50.0998 7.99969 50.4998C8.29969 51.2998 8.69969 52.0998 9.09969 52.8998C9.39969 53.2998 9.39969 53.6998 9.49969 54.1998C9.69969 55.1998 10.033 56.1665 10.4997 57.0998C11.2997 58.8998 12.4997 60.5998 14.0997 61.9998C14.8997 62.7331 15.7997 63.3331 16.7997 63.7998C16.4664 63.7998 16.1664 63.7665 15.8997 63.6998C14.5997 63.3998 13.3997 62.6998 12.3997 61.6998C11.933 61.2331 11.533 60.6998 11.1997 60.0998C9.89969 57.5998 8.59969 55.0998 7.39969 52.5998C6.49969 50.5998 5.09969 48.2998 4.99969 45.9998C4.99969 45.9331 4.99969 45.8331 4.99969 45.6998C4.89969 44.1998 5.29969 42.6998 5.89969 41.2998C6.79969 38.8998 8.39969 36.6998 9.59969 34.5998C11.7997 31.0998 14.1997 27.7998 16.5997 24.4998C19.2664 20.9665 22.033 17.5665 24.8997 14.2998C25.3664 13.6331 25.8664 13.0331 26.3997 12.4998C28.4997 10.0998 30.4997 7.9998 33.1997 5.8998C38.8997 1.3998 46.6997 1.4998 53.4997 1.3998C62.2997 1.1998 70.7997 1.0998 79.3997 0.999805C83.133 0.999805 86.833 0.966471 90.4997 0.899805C94.233 0.899805 97.933 0.866471 101.6 0.799805C105.333 0.799805 109.033 0.766471 112.7 0.699805C116.433 0.699805 120.133 0.666471 123.8 0.599805C127.466 0.599805 131.133 0.599805 134.8 0.599805C138.533 0.599805 142.233 0.599805 145.9 0.599805C149.566 0.533138 153.233 0.533138 156.9 0.599805C160.633 0.533138 164.333 0.533138 168 0.599805C171.666 0.599805 175.333 0.599805 179 0.599805C182.666 0.599805 186.333 0.599805 190 0.599805C193.666 0.666471 197.333 0.699805 201 0.699805C204.666 0.699805 208.333 0.733138 212 0.799805C215.666 0.799805 219.333 0.833138 223 0.899805C226.666 0.899805 230.333 0.933138 234 0.999805C237.6 1.06647 241.233 1.13314 244.9 1.1998C248.566 1.1998 252.233 1.23314 255.9 1.2998C259.566 1.36647 263.2 1.43314 266.8 1.4998C270.3 1.5998 273.6 1.7998 276.7 3.1998C277.1 3.3998 277.533 3.5998 278 3.7998C281.4 5.6998 284.3 8.4998 286.9 11.3998C287.5 12.0665 288.1 12.7665 288.7 13.4998C289.7 14.5998 290.7 15.8998 291.6 17.1998C292.6 18.7331 293.566 20.2998 294.5 21.8998C294.7 22.3998 295 22.9998 294.6 23.2998V23.2998Z" fill="#EB924D"/>
<path d="M94.5004 56.5998C94.4338 56.6665 94.3338 56.7331 94.2004 56.7998C90.0004 64.2998 78.1004 66.8998 71.3004 60.7998C68.2004 58.0998 68.4004 52.8998 71.3004 50.0998C75.9004 45.6998 85.7004 44.6998 91.5004 47.8998C95.4004 48.6998 97.8004 53.5998 94.5004 56.5998V56.5998Z" fill="#EB924D"/>
<path d="M95.8998 53.7001C95.8332 53.7668 95.7332 53.8334 95.5998 53.9001C91.2998 61.4001 79.4998 64.0001 72.6998 58.0001C69.5998 55.2001 69.7998 50.0001 72.6998 47.2001C77.2998 42.8001 87.0998 41.8001 92.8998 45.1001C96.7998 45.8001 99.1998 50.7001 95.8998 53.7001V53.7001Z" fill="url(#paint4_linear_704_2407)"/>
<path d="M94.5004 55.5002C94.4338 55.6335 94.3338 55.7335 94.2004 55.8002C90.0004 63.3002 78.1004 65.9002 71.3004 59.8002C68.2004 57.1002 68.4004 51.9002 71.3004 49.1002C75.9004 44.7002 85.7004 43.6002 91.5004 46.9002C95.4004 47.7002 97.8004 52.6002 94.5004 55.5002V55.5002Z" fill="url(#paint5_linear_704_2407)"/>
<path d="M244 34.3999C243.933 34.4665 243.867 34.5332 243.8 34.5999C241.1 39.2999 233.7 40.8999 229.5 37.0999C227.6 35.3999 227.7 32.0999 229.5 30.3999C232.4 27.5999 238.5 26.9999 242.1 29.0999C244.5 29.4999 246 32.5999 244 34.3999Z" fill="#EB924D"/>
<path d="M244.8 32.6001C244.734 32.6667 244.7 32.7334 244.7 32.8001C242 37.5001 234.6 39.1001 230.4 35.3001C228.4 33.6001 228.5 30.3001 230.4 28.6001C233.3 25.8001 239.3 25.2001 243 27.3001C245.4 27.7001 246.9 30.8001 244.8 32.6001Z" fill="url(#paint6_linear_704_2407)"/>
<path d="M244 33.7998C243.933 33.8665 243.867 33.8998 243.8 33.8998C241.1 38.5998 233.7 40.2998 229.5 36.4998C227.6 34.6998 227.7 31.4998 229.5 29.7998C232.4 26.9998 238.5 26.3998 242.1 28.3998C244.5 28.8998 246 31.8998 244 33.7998V33.7998Z" fill="url(#paint7_linear_704_2407)"/>
<path d="M291.2 47.7001C288.667 52.5001 285.934 57.0667 283 61.4001C279.8 66.2001 276.4 70.6001 272.7 74.6001C272 75.4001 270.9 75.9001 269.8 75.9001C196 78.1001 121.2 77.9001 45.3002 75.5001C44.3002 75.4001 43.2002 75.0001 42.5002 74.2001C34.1002 65.3001 26.8002 56.2001 22.3002 46.7001C21.7002 45.5001 21.8002 44.0001 22.5002 42.9001C23.3002 41.7001 24.1002 40.5334 24.9002 39.4001C30.3002 31.7001 36.7002 24.5001 43.9002 17.7001C44.7002 17.0001 45.6002 16.6001 46.6002 16.6001C121.334 15.1334 195.567 15.3001 269.3 17.1001C270.4 17.2001 271.5 17.7001 272.2 18.5001C280 27.6001 286.7 36.2001 291.2 43.9001C291.8 45.0001 291.9 46.5001 291.2 47.7001Z" fill="url(#paint8_linear_704_2407)"/>
<path d="M291.2 47.7001C290.8 48.5001 290.4 49.2667 290 50.0001C289.7 50.5001 289.2 50.9001 289 51.5001C287.5 54.6001 284.8 56.8001 282 58.9001C279.1 61.1001 276 63.3001 274.5 66.7001C274.767 66.1001 275.067 65.5334 275.4 65.0001C278.8 58.9001 282.2 52.8001 285.3 46.5001C284.834 45.7001 284.334 44.9334 283.8 44.2001C281.8 41.0001 279.5 38.1001 276.9 35.4001C275.7 34.2001 274.4 33.1001 273.3 31.8001C272.5 30.9001 271.5 30.7001 270.4 30.4001C265.9 29.1001 261.3 28.7001 256.6 28.3001C198.2 23.9001 139.5 22.4001 81.1004 25.9001C63.9004 26.9001 47.3004 32.3001 31.5004 39.4001C30.6004 39.8001 29.9004 40.5001 29.1004 41.1001C28.3004 41.7001 27.3004 42.1001 26.3004 41.8001C25.4004 41.4001 24.9004 40.4001 24.9004 39.4001C30.3004 31.7001 36.7004 24.5001 43.9004 17.7001C44.7004 17.0001 45.6004 16.6001 46.6004 16.6001C121.334 15.1334 195.567 15.3001 269.3 17.1001C270.4 17.2001 271.5 17.7001 272.2 18.5001C280 27.6001 286.7 36.2001 291.2 43.9001C291.8 45.0001 291.9 46.5001 291.2 47.7001V47.7001Z" fill="#FFDF80"/>
<path d="M287.7 45.9001C282.1 56.3001 276.2 64.8001 269.8 71.9001C248.3 72.6001 226.6 73.0001 204.8 73.2001C192.134 73.3334 179.467 73.4001 166.8 73.4001C165.4 73.4001 164 73.4001 162.6 73.4001C124.1 73.4001 84.8004 72.7001 45.5004 71.5001C35.9004 61.4001 29.7004 53.0001 25.9004 45.0001C31.3004 36.7001 38.3004 28.4001 46.7004 20.6001C47.1004 20.6001 47.5004 20.6001 47.9004 20.6001C80.9004 20.0001 114.2 19.6001 147 19.6001C157.667 19.6001 168.367 19.6334 179.1 19.7001C195.7 19.8001 212.3 20.0001 228.9 20.3001C232.167 20.3668 235.4 20.4334 238.6 20.5001C238.667 20.5001 238.7 20.5001 238.7 20.5001C240.034 20.5001 241.334 20.5001 242.6 20.5001C251.4 20.7001 260.2 20.9001 269 21.1001H269.2C269.334 21.3001 269.467 21.4668 269.6 21.6001C272.7 25.2001 275.4 28.5001 277.8 31.6001C282.1 37.0001 285.3 41.7001 287.7 45.9001V45.9001Z" fill="url(#paint9_linear_704_2407)"/>
<path d="M277.3 49.4001C239.9 50.9001 202.4 51.6001 165 51.7001H163.4C121.467 51.8334 79.5334 51.1001 37.6 49.5001C35.3 49.4001 31.7 49.3001 30.2 47.1001C29.4 45.8001 29.9 44.3001 30.5 43.0001C32.6 38.7001 35.3 34.7001 38.1 30.8001C39.5 29.0001 40.9334 27.2001 42.4 25.4001C42.8 25.0001 43 24.6001 43.3 24.1001C44.1 22.8001 45.8 22.0001 47 21.1001C47.2667 20.9668 47.5667 20.8001 47.9 20.6001C80.9 20.0001 114.2 19.6001 147 19.6001C187.6 19.6001 228.6 20.1001 269 21.1001C269.2 21.2334 269.4 21.4001 269.6 21.6001V21.7001C272.7 24.4001 275.4 27.6001 277.5 31.1001C277.567 31.2334 277.667 31.4001 277.8 31.6001C279.4 34.4001 280.7 37.4001 281.6 40.6001C282.1 42.1001 282.3 43.7001 283 45.3001C284.3 48.5001 279.8 49.3001 277.3 49.4001Z" fill="url(#paint10_linear_704_2407)"/>
<path style="mix-blend-mode:screen" d="M245.5 20.2002C244.566 20.2669 243.6 20.3669 242.6 20.5002C237.2 21.6002 232.2 24.7002 228.3 28.6002C223.7 33.3002 220.3 39.0002 216.9 44.6002C213.366 50.6002 209.8 56.6002 206.2 62.6002C204.8 65.0002 203.4 67.4002 203.6 70.1002C203.6 71.2002 204.1 72.3002 204.8 73.2002C192.133 73.3335 179.466 73.4002 166.8 73.4002C165.4 73.4002 164 73.4002 162.6 73.4002C167 72.8002 171.4 71.5002 175.4 69.6002C176.6 69.0002 177.9 68.3002 178.9 67.4002C180 66.5002 180.6 65.4002 181.4 64.3002C182.4 62.9002 183.5 61.6002 184.5 60.2002C189 53.5002 193.2 46.6002 197 39.6002C198.6 36.6002 200.2 33.5002 199.8 30.1002C199.4 25.9002 195.7 22.5002 191.7 21.1002C187.6 19.6002 183.2 19.7002 179 19.9002C179.066 19.8335 179.1 19.7669 179.1 19.7002C195.7 19.8002 212.3 20.0002 228.9 20.3002C232.1 20.4335 235.333 20.5002 238.6 20.5002C238.666 20.5002 238.7 20.5002 238.7 20.5002C240.966 20.4335 243.233 20.3335 245.5 20.2002V20.2002Z" fill="url(#paint11_linear_704_2407)"/>
</g>
<defs>
<linearGradient id="paint0_linear_704_2407" x1="329.3" y1="-55.1999" x2="319.9" y2="2.3001" gradientUnits="userSpaceOnUse">
<stop stop-color="#CF5C2B"/>
<stop offset="1" stop-color="#59173E"/>
</linearGradient>
<linearGradient id="paint1_linear_704_2407" x1="323.5" y1="-51.6002" x2="282" y2="325.3" gradientUnits="userSpaceOnUse">
<stop stop-color="#CF5C2B"/>
<stop offset="1" stop-color="#59173E"/>
</linearGradient>
<linearGradient id="paint2_linear_704_2407" x1="314.6" y1="0.399999" x2="301.6" y2="292" gradientUnits="userSpaceOnUse">
<stop stop-color="#CF5C2B"/>
<stop offset="1" stop-color="#59173E"/>
</linearGradient>
<linearGradient id="paint3_linear_704_2407" x1="13" y1="140.1" x2="13" y2="67.0002" gradientUnits="userSpaceOnUse">
<stop stop-color="#CF5C2B"/>
<stop offset="1" stop-color="#59173E"/>
</linearGradient>
<linearGradient id="paint4_linear_704_2407" x1="107.7" y1="33.5001" x2="95.5999" y2="65.8001" gradientUnits="userSpaceOnUse">
<stop stop-color="#CF5C2B"/>
<stop offset="1" stop-color="#59173E"/>
</linearGradient>
<linearGradient id="paint5_linear_704_2407" x1="146.9" y1="-57.7998" x2="42.7004" y2="184.1" gradientUnits="userSpaceOnUse">
<stop stop-color="#CF5C2B"/>
<stop offset="1" stop-color="#59173E"/>
</linearGradient>
<linearGradient id="paint6_linear_704_2407" x1="253.5" y1="20.5001" x2="246" y2="40.6001" gradientUnits="userSpaceOnUse">
<stop stop-color="#CF5C2B"/>
<stop offset="1" stop-color="#59173E"/>
</linearGradient>
<linearGradient id="paint7_linear_704_2407" x1="277.9" y1="-36.4002" x2="212.9" y2="114.4" gradientUnits="userSpaceOnUse">
<stop stop-color="#CF5C2B"/>
<stop offset="1" stop-color="#59173E"/>
</linearGradient>
<linearGradient id="paint8_linear_704_2407" x1="295.7" y1="13.1001" x2="295.7" y2="46.7001" gradientUnits="userSpaceOnUse">
<stop stop-color="#FFCA2B"/>
<stop offset="1" stop-color="#D15B24"/>
</linearGradient>
<linearGradient id="paint9_linear_704_2407" x1="21.9004" y1="103.2" x2="21.9004" y2="43.0001" gradientUnits="userSpaceOnUse">
<stop stop-color="#FFCE3B"/>
<stop offset="1" stop-color="#CC6923"/>
</linearGradient>
<linearGradient id="paint10_linear_704_2407" x1="25.8" y1="83.1001" x2="25.8" y2="29.1001" gradientUnits="userSpaceOnUse">
<stop stop-color="#FFCE3B"/>
<stop offset="1" stop-color="#CC6923"/>
</linearGradient>
<linearGradient id="paint11_linear_704_2407" x1="258.5" y1="1.2002" x2="214.1" y2="99.8002" gradientUnits="userSpaceOnUse">
<stop stop-color="#F2DE6D"/>
<stop offset="1"/>
</linearGradient>
<clipPath id="clip0_704_2407">
<rect width="309" height="100" fill="white"/>
</clipPath>
</defs>
</svg>
